# xmcd CD database file
#
# Track frame offsets:
#	150
#	26638
#	52726
#	74113
#	95303
#	117658
#	144268
#	163971
#	188631
#	209343
#	231298
#	253118
#	281523
#
# Disc length: 4501 seconds
#
# Revision: 2
# Processed by: cddbd v1.4b41PL1 Copyright (c) Steve Scherf et al.
# Submitted via: Feurio! 1.50.2ß - http://www.feurio.com
#
DISCID=c111930d
DTITLE=Carlos Santana - Supernatural
DYEAR=1900
DGENRE=
TTITLE0=??? - Santana - (Da Le) Yaleo
TTITLE1=??? - Santana - Love Of My Life (feat. Dave Matthews)
TTITLE2=??? - Santana - Put Your Lights On (feat. Everlast)
TTITLE3=??? - Santana - Africa Bamba
TTITLE4=??? - Santana - Smooth (feat. Rob Thomas)
TTITLE5=??? - Santana - Do You Like The Way (feat. Lauryn Hill and Cee-Lo)
TTITLE6=Santana - Maria Maria (feat. The Product G&B and Wyclef Jean)
TTITLE7=Santana - Migra
TTITLE8=Santana - Corazon Espinado (feat. Mana)
TTITLE9=Santana - Wishing It Was (feat. Eagle-Eye Cherry)
TTITLE10=Santana - El Farol
TTITLE11=Santana - Primavera
TTITLE12=Santana - The Calling (feat. Eric Clapton)
EXTD=
EXTT0=
EXTT1=
EXTT2=
EXTT3=
EXTT4=
EXTT5=
EXTT6=
EXTT7=
EXTT8=
EXTT9=
EXTT10=
EXTT11=
EXTT12=
PLAYORDER=
